HIERARCHY
ROOT root
{
	OFFSET 0.000000 0.000000 0.000000
	CHANNELS 6 Xposition Yposition Zposition Zrotation Yrotation Xrotation
	JOINT lhip
	{
		OFFSET 0.058581 -0.082280 -0.017664
		CHANNELS 3 Zrotation Yrotation Xrotation
		JOINT lknee
		{
			OFFSET 0.043451 -0.386469 0.008037
			CHANNELS 3 Zrotation Yrotation Xrotation
			JOINT lankle
			{
				OFFSET -0.014790 -0.426874 -0.037428
				CHANNELS 3 Zrotation Yrotation Xrotation
				JOINT ltoe
				{
					OFFSET 0.041054 -0.060286 0.122042
					CHANNELS 3 Zrotation Yrotation Xrotation
					End Site
					{
						OFFSET 0.000000 0.000000 0.000000
					}
				}
			}
		}
	}
	JOINT rhip
	{
		OFFSET -0.060310 -0.090513 -0.013543
		CHANNELS 3 Zrotation Yrotation Xrotation
		JOINT rknee
		{
			OFFSET -0.043257 -0.383688 -0.004843
			CHANNELS 3 Zrotation Yrotation Xrotation
			JOINT rankle
			{
				OFFSET 0.019056 -0.420046 -0.034562
				CHANNELS 3 Zrotation Yrotation Xrotation
				JOINT rtoe
				{
					OFFSET -0.034840 -0.062106 0.130323
					CHANNELS 3 Zrotation Yrotation Xrotation
					End Site
					{
						OFFSET 0.000000 0.000000 0.000000
					}
				}
			}
		}
	}
	JOINT lowerback
	{
		OFFSET 0.004439 0.124404 -0.038385
		CHANNELS 3 Zrotation Yrotation Xrotation
		JOINT upperback
		{
			OFFSET 0.004488 0.137956 0.026820
			CHANNELS 3 Zrotation Yrotation Xrotation
			JOINT chest
			{
				OFFSET -0.002265 0.056032 0.002855
				CHANNELS 3 Zrotation Yrotation Xrotation
				JOINT lowerneck
				{
					OFFSET -0.013390 0.211636 -0.033468
					CHANNELS 3 Zrotation Yrotation Xrotation
					JOINT upperneck
					{
						OFFSET 0.010113 0.088937 0.050410
						CHANNELS 3 Zrotation Yrotation Xrotation
						End Site
						{
							OFFSET 0.000000 0.000000 0.000000
						}
					}
				}
				JOINT lclavicle
				{
					OFFSET 0.071702 0.114000 -0.018898
					CHANNELS 3 Zrotation Yrotation Xrotation
					JOINT lshoulder
					{
						OFFSET 0.122921 0.045205 -0.019046
						CHANNELS 3 Zrotation Yrotation Xrotation
						JOINT lelbow
						{
							OFFSET 0.255332 -0.015649 -0.022946
							CHANNELS 3 Zrotation Yrotation Xrotation
							JOINT lwrist
							{
								OFFSET 0.265709 0.012698 -0.007375
								CHANNELS 3 Zrotation Yrotation Xrotation
								End Site
								{
									OFFSET 0.000000 0.000000 0.000000
								}
							}
						}
					}
				}
				JOINT rclavicle
				{
					OFFSET -0.082954 0.112472 -0.023707
					CHANNELS 3 Zrotation Yrotation Xrotation
					JOINT rshoulder
					{
						OFFSET -0.113228 0.046853 -0.008472
						CHANNELS 3 Zrotation Yrotation Xrotation
						JOINT relbow
						{
							OFFSET -0.260127 -0.014369 -0.031269
							CHANNELS 3 Zrotation Yrotation Xrotation
							JOINT rwrist
							{
								OFFSET -0.269108 0.006794 -0.006027
								CHANNELS 3 Zrotation Yrotation Xrotation
								End Site
								{
									OFFSET 0.000000 0.000000 0.000000
								}
							}
						}
					}
				}
			}
		}
	}
}
MOTION
Frames: 11
Frame Time: 0.033333
0.108640 0.016607 1.003019 -8.646761 2.947508 93.173601 3.358399 -1.902239 -25.670882 -7.805660 5.278406 14.905308 8.213259 7.267569 -3.848972 0.000000 -0.000000 0.000000 -5.783951 -5.261966 -3.254488 6.570325 -4.744815 36.759457 8.331167 -4.636634 -0.157067 0.000000 -0.000000 0.000000 -3.839872 5.607873 16.000580 0.144024 -1.502319 -3.804557 -0.004653 0.760004 -2.216885 -1.572707 2.451335 11.512396 -0.196015 3.117259 24.115914 -26.568009 -7.479599 3.021793 -48.854387 -13.894659 7.994585 8.534810 -14.470668 1.217942 2.679695 -4.021242 -0.207046 21.777715 10.762455 6.588094 47.327412 13.953575 13.609357 -2.108495 14.087648 15.482474 12.285127 0.098583 7.222860 
0.112527 0.000771 1.003455 -8.711677 3.084550 92.562441 2.840208 -1.439456 -23.726094 -8.109260 4.530081 14.794055 8.737398 7.648307 -4.686181 0.000000 -0.000000 0.000000 -6.778995 -5.138226 -5.476407 5.984856 -5.805178 42.289814 8.350488 -6.044474 1.162606 0.000000 -0.000000 0.000000 -4.059647 4.986230 16.275935 0.373651 -1.207357 -3.561800 0.060036 0.482263 -2.382382 -1.186217 2.460399 11.541879 -0.605707 3.419801 24.184548 -26.942719 -8.348658 3.208186 -47.667500 -14.306050 8.342857 7.128685 -15.944811 2.075169 3.440057 -4.407853 0.279243 22.242298 11.374768 6.388869 45.703082 15.440275 13.611656 -2.123453 15.650409 14.275775 10.962706 0.405708 7.482048 
0.115652 -0.013888 1.002437 -8.711778 3.256416 91.924505 2.429091 -0.929960 -22.309619 -8.137071 4.220716 15.508803 8.889270 7.621316 -5.673645 0.000000 -0.000000 0.000000 -7.374083 -5.591898 -7.832353 3.445961 -7.619155 46.516466 6.548888 -10.300850 -0.869429 0.000000 -0.000000 0.000000 -4.082421 4.425625 16.567475 0.463577 -0.926885 -3.401701 0.109487 0.112606 -2.538626 -0.886336 2.503323 11.315186 -1.051545 3.931872 24.552893 -27.230918 -9.263787 3.612376 -46.227972 -15.235194 8.142695 5.724951 -17.251251 3.769965 4.058490 -5.301657 1.045752 22.706061 11.951794 6.356991 44.454260 17.033371 13.197357 -2.566384 17.379754 12.558193 10.246486 1.005822 7.436480 
0.118026 -0.027886 1.001404 -8.535146 3.461663 91.197956 2.022624 -0.548882 -20.823043 -7.909291 3.896166 16.139070 8.573678 7.573333 -6.705675 0.000000 -0.000000 0.000000 -7.497674 -5.589504 -9.567038 0.478283 -9.654671 48.129978 4.605335 -14.056314 -4.136513 0.000000 -0.000000 0.000000 -4.020734 3.900467 17.091241 0.524818 -0.764264 -3.652128 0.075592 -0.070303 -2.406455 -0.099677 2.669258 11.196797 -1.424080 3.695058 25.238913 -27.306252 -10.148654 3.694829 -45.093090 -16.432324 8.315648 5.058160 -18.259009 5.251038 4.137054 -6.207695 1.960073 23.112766 12.352842 6.027678 43.888885 18.284294 13.035900 -3.345176 19.092586 10.691437 9.630895 1.699483 5.854256 
0.119959 -0.041103 1.001078 -8.247810 3.713133 90.315305 1.689162 0.153172 -19.081892 -7.756782 3.114970 16.562163 8.067256 7.585439 -7.458239 0.000000 -0.000000 0.000000 -7.291161 -5.717598 -10.794475 -1.608847 -11.246327 47.486981 3.967641 -15.032576 -6.755323 0.000000 -0.000000 0.000000 -3.752360 3.534209 17.817396 0.413969 -0.737883 -3.750115 0.185991 -0.297967 -2.431163 0.266871 2.841288 11.779415 -1.625790 3.405018 24.960281 -27.261729 -11.029773 3.448365 -44.365711 -17.580666 8.256623 4.968249 -19.258190 6.142417 3.933842 -6.212108 2.897857 23.194071 12.834559 5.895245 43.737115 19.456511 12.679726 -3.611527 20.605990 9.671287 9.100212 1.880527 3.757957 
0.121759 -0.052910 1.001131 -7.728893 3.846425 89.814796 1.344421 0.578914 -17.543105 -7.661997 2.271361 16.408212 7.786491 7.307820 -8.069448 0.000000 -0.000000 0.000000 -6.977017 -6.156695 -12.648571 -2.425286 -12.702580 46.068998 4.032411 -15.295783 -8.796658 0.000000 -0.000000 0.000000 -3.630624 3.083488 18.283321 0.298444 -0.709310 -4.063614 0.298479 -0.432290 -2.405560 0.429594 2.949484 12.189112 -1.369708 3.170799 25.013594 -27.121608 -11.612317 3.159911 -44.241998 -19.025913 7.793121 5.462617 -20.035950 6.140576 3.891213 -6.088342 3.992057 23.087001 12.975850 5.820706 44.434123 20.095395 12.287777 -4.398178 22.515853 8.708755 9.309438 2.056474 3.191363 
0.122959 -0.064535 1.001748 -7.255485 3.901027 89.459351 0.906858 0.696474 -15.955415 -7.538601 1.391201 15.949677 7.972837 7.564850 -8.660300 0.000000 -0.000000 0.000000 -6.600186 -6.358275 -14.919723 -2.429425 -14.498739 44.282991 3.775892 -16.567807 -9.855458 0.000000 -0.000000 0.000000 -3.612644 2.580718 18.328220 0.136727 -0.493299 -4.222539 0.412104 -0.592219 -2.099492 0.594124 2.690756 12.481547 -1.131095 2.935277 24.987873 -26.909977 -11.795201 2.806065 -44.457932 -20.328519 7.563771 6.561011 -21.460295 4.362069 4.494890 -6.148904 2.739130 22.758770 13.142226 5.541311 45.326127 20.446073 12.890635 -4.632142 24.114937 8.544322 9.247738 2.132911 2.100474 
0.123791 -0.076054 1.002687 -6.689332 3.974283 89.034069 0.399504 0.720791 -14.115647 -7.185027 0.490720 15.059037 8.175533 7.753095 -8.741168 0.000000 -0.000000 0.000000 -6.099306 -6.577192 -16.909266 -1.726967 -16.104233 41.946983 3.839874 -16.539105 -11.063864 0.000000 -0.000000 0.000000 -3.455394 1.984998 18.474687 -0.044422 -0.290584 -4.267043 0.535437 -0.702539 -2.020417 0.705576 2.402950 12.685926 -1.027803 2.838486 25.267100 -26.715772 -11.579074 2.307161 -45.026852 -21.374976 7.266479 7.487131 -23.094255 1.962618 5.284671 -5.986121 0.997877 22.368245 13.188155 5.397810 46.268304 20.557898 13.570072 -4.378456 25.415021 8.950402 9.236690 2.356452 1.695741 
0.124271 -0.086843 1.003739 -6.234954 4.171958 88.655724 0.116696 0.688824 -12.349970 -6.775007 -0.319760 14.141200 8.110185 7.942397 -9.213710 0.000000 -0.000000 0.000000 -5.310857 -6.557075 -18.712891 -1.110246 -17.618222 39.150027 3.905747 -16.127445 -11.814289 0.000000 -0.000000 0.000000 -3.163032 1.515273 18.727714 -0.245624 -0.072362 -4.225088 0.782124 -0.797434 -2.074481 0.565383 2.083372 13.157138 -0.777970 2.684996 24.868510 -26.524915 -11.274843 2.055915 -45.685980 -22.023237 6.974765 8.307471 -25.328500 -0.330596 5.986734 -5.948129 -0.341851 21.979664 13.249297 5.329571 46.986572 20.409528 13.997807 -3.896475 26.476532 10.080500 9.104849 2.554047 2.990050 
0.124220 -0.096336 1.004462 -5.886529 4.253113 88.447431 -0.097597 0.713516 -10.892599 -6.488796 -0.894673 13.274445 7.943839 7.990928 -9.541526 0.000000 -0.000000 0.000000 -4.577479 -6.346683 -21.038465 -1.029964 -19.332005 36.970260 4.124441 -16.407958 -12.302242 0.000000 -0.000000 0.000000 -3.164686 0.965371 19.032830 -0.353124 0.318911 -4.459940 1.051681 -0.842962 -1.939097 0.593887 1.805861 13.201811 -0.459251 2.414385 24.918686 -26.311772 -10.728487 1.780535 -46.265771 -22.513904 6.885235 8.782363 -27.603807 -1.919622 6.373677 -6.626408 -1.303675 21.702853 13.213102 5.375203 47.599033 20.366665 14.562173 -3.358397 26.900457 11.408794 9.788304 2.574068 3.806577 
0.123669 -0.104718 1.004753 -5.839222 4.234014 88.153995 -0.318163 0.991659 -9.167788 -6.182723 -1.378214 11.958206 7.896838 8.069802 -9.320647 0.000000 -0.000000 0.000000 -3.772564 -6.160719 -23.000427 -0.748861 -20.673138 33.988072 3.953727 -16.680643 -11.712520 0.000000 -0.000000 0.000000 -3.223651 0.699564 19.607776 -0.470539 0.711249 -4.703568 1.322488 -0.806374 -1.886363 0.644363 1.636858 13.347493 -0.095513 2.126466 24.992951 -25.809314 -10.301175 1.690765 -46.978239 -22.692661 7.269705 8.760508 -29.425712 -1.837463 6.714716 -7.030519 -1.908620 21.370227 13.217417 5.451174 48.252914 20.308377 14.903011 -2.921676 26.585528 12.556068 9.909604 2.461582 4.734550 
